<svg version="1" xmlns="http://www.w3.org/2000/svg" width="1365.333" height="1365.333" viewBox="0 0 1024.000000 1024.000000"><path d="M620.9 65.4c-.2.2-4 .7-8.3 1-10.5.9-23.9 2.7-30.6 4.1-1.4.3-4.3.8-6.4 1.1-2.2.4-10.1 2.2-17.5 4.1-7.5 1.8-14.7 3.6-16 3.9-3.2.7-37.9 12.3-41.6 13.9-1.6.8-8.1 3.4-14.3 5.9-24.5 9.9-55 26.1-79.7 42.3-12.6 8.3-33.5 23.6-39.9 29.3-12.7 11.2-16 14.3-23.1 21.4-24.1 24.2-46 53.5-57.8 77.2-14.6 29.4-21.1 57.4-21 90.4.1 29.7 6.9 50.8 24.8 77.5 15.2 22.7 34.8 43.9 59 64 3.3 2.8 6.2 5.2 6.5 5.5 1.5 1.6 20.1 15.8 30.5 23.3 6.6 4.7 13.8 9.9 16 11.5 5.5 4 36 26.8 38.2 28.6 1 .8 4.5 3.7 7.8 6.3 34.6 27.8 56.7 55.3 63.6 79.3 2.8 9.8 3.4 28.3 1.2 36.7-3.6 14-15.4 29.4-30.2 39.3-19.7 13.2-48.1 19.7-69 15.8-2.5-.5-5.8-1.1-7.2-1.3-3-.6-17.6-5.2-20.4-6.5-1.1-.5-4.9-2.1-8.5-3.6-9.3-3.8-24.1-11.3-34.6-17.6-21.9-13.2-44.4-34.1-55.3-51.6-3-4.8-3.5-5.1-4.6-3.5-.6 1-7.9 15.1-16.2 31.3-8.2 16.2-15.4 30.4-16 31.5-.6 1.1-2 3.8-3.1 6-1 2.2-7.3 14.6-13.9 27.5-32 62.4-38.3 75.2-37.6 76.3 2.9 5 26.7 31.4 35.3 39.3 1.9 1.8 5.6 5.2 8.2 7.6 16.3 15.2 37.6 29.5 59.9 40.3 11.6 5.5 35.2 13.9 42.3 14.9 2.1.4 4.1.8 4.5 1 .3.2 2.8.7 5.5 1 2.7.4 5.2.9 5.6 1.1 2.3 1.4 41.9 2.2 53.5 1.1 2.2-.2 7.4-.7 11.5-1.1 4.1-.4 8.6-.8 10-1 1.4-.2 4.5-.6 7-.9 10.4-1.4 12.6-1.7 14-2.1.8-.2 3-.7 4.7-1 1.8-.3 6.3-1.2 10-2.1 89.5-20.6 159.1-69.6 202.2-142.2 19-32 31.3-65.8 36.1-99.7.6-4.4 1.3-9.1 1.6-10.5 1.7-9.7 2.3-44.4 1.1-65-.7-12.5-1.1-15.7-3.2-30-1.7-11.1-2-12.4-3.9-20.8-5.9-25.8-21.6-60-37.8-82.2-6.4-8.8-13.3-16.7-24.8-28-13.1-13-24.8-22.1-43-33.5-11.3-7-41-26.6-48.4-31.9-14.4-10.2-32.9-27.3-41.3-38.1-11.9-15.4-16.9-40.9-11.8-60.7 4-15.8 18.1-35.4 34.4-47.8 1.8-1.4 4.5-3.4 5.9-4.6 2.9-2.1 9.8-6.5 17.3-10.7 6.8-3.9 19.1-7.7 24.6-7.7 16.5.1 30.6 9.5 37.7 25.3 5.8 12.6 7.1 21.1 7 43.2-.1 12.3-.6 17.1-2.7 26.5-1.4 6.3-2.5 11.5-2.4 11.6.1.1 3.1-.7 6.7-1.8 11.1-3.4 18.8-5.6 39-11.4 10.7-3 29.4-8.4 41.5-11.9C715.6 299 739.7 292 757 287c17.3-5 31.9-9.5 32.3-9.9.8-.8 1.2-2.6 2.2-10.6.3-2.8 1.4-10.2 2.5-16.5 3.4-20.3 4.2-28.2 4.2-41 .1-11.3-.7-25-1.8-30.4-.2-1.1-.6-3.8-1-6.1-.3-2.2-1.7-7.8-3.1-12.5-1.3-4.7-2.7-9.4-3-10.5-.4-1.1-2.8-6.3-5.5-11.5-19.4-37.3-50.8-59.7-96.2-68.5-6.6-1.3-14.8-2.7-18.1-3-6.4-.7-48-1.6-48.6-1.1z"/></svg>